Coordinates
version=1
nRows=26
nColumns=11
inDegrees=yes

Units are S.I. units (second, meters, Newtons, ...)
If the header above contains a line with 'inDegrees', this indicates whether rotational values are in degrees (yes) or radians (no).

endheader
time	pelvis_tilt	pelvis_tx	pelvis_ty	hip_flexion_l	hip_flexion_r	knee_angle_l	knee_angle_r	ankle_angle_l	ankle_angle_r	lumbar
     26.30000000	    -21.34053308	      0.24605629	      0.91446448	     48.93271436	     48.93271436	    -38.64271849	    -38.64271849	      8.17637880	      8.17637880	    -21.18021963
     26.31000000	    -20.87529544	      0.24963641	      0.91784587	     47.77193499	     47.77193499	    -37.89786539	    -37.89786539	      8.08972608	      8.08972608	    -20.73501358
     26.32000000	    -20.40653017	      0.25318407	      0.92118369	     46.61380976	     46.61380976	    -37.15635618	    -37.15635618	      7.99539089	      7.99539089	    -20.30041013
     26.33000000	    -19.94116867	      0.25671430	      0.92446707	     45.45925391	     45.45925391	    -36.40919262	    -36.40919262	      7.89478715	      7.89478715	    -19.87069903
     26.34000000	    -19.47274053	      0.26020967	      0.92769726	     44.30646291	     44.30646291	    -35.66519222	    -35.66519222	      7.78828408	      7.78828408	    -19.45132902
     26.35000000	    -19.27840726	      0.26347179	      0.93028955	     43.47983617	     43.47983617	    -34.95273541	    -34.95273541	      7.76573980	      7.76573980	    -18.68821919
     26.36000000	    -18.55464663	      0.26707718	      0.93394773	     42.03025195	     42.03025195	    -34.17255239	    -34.17255239	      7.56365626	      7.56365626	    -18.61196182
     26.37000000	    -18.10970127	      0.27043738	      0.93695083	     40.91630501	     40.91630501	    -33.43047770	    -33.43047770	      7.44472889	      7.44472889	    -18.18873537
     26.38000000	    -17.67782138	      0.27374374	      0.93986255	     39.82268660	     39.82268660	    -32.69065542	    -32.69065542	      7.32146177	      7.32146177	    -17.75481836
     26.39000000	    -17.25971317	      0.27699061	      0.94268233	     38.75034432	     38.75034432	    -31.95453890	    -31.95453890	      7.19273175	      7.19273175	    -17.31483466
     26.40000000	    -16.85075234	      0.28020133	      0.94543456	     37.69216709	     37.69216709	    -31.21711334	    -31.21711334	      7.05808141	      7.05808141	    -16.86839567
     26.41000000	    -16.44826022	      0.28335249	      0.94811675	     36.64783058	     36.64783058	    -30.48273471	    -30.48273471	      6.91754703	      6.91754703	    -16.42509866
     26.42000000	    -16.35124368	      0.28628218	      0.95005111	     35.98548533	     35.98548533	    -29.83155422	    -29.83155422	      6.90636265	      6.90636265	    -15.59935435
     26.43000000	    -15.68635031	      0.28954525	      0.95320296	     34.60864567	     34.60864567	    -29.00600943	    -29.00600943	      6.64012055	      6.64012055	    -15.50130697
     26.44000000	    -15.30790429	      0.29261161	      0.95564168	     33.59127182	     33.59127182	    -28.26691047	    -28.26691047	      6.49557235	      6.49557235	    -15.04440829
     26.45000000	    -14.93645399	      0.29561758	      0.95801396	     32.58389974	     32.58389974	    -27.52207737	    -27.52207737	      6.35457545	      6.35457545	    -14.58870282
     26.46000000	    -14.56865273	      0.29858557	      0.96031253	     31.58129811	     31.58129811	    -26.77370637	    -26.77370637	      6.21520632	      6.21520632	    -14.13652899
     26.47000000	    -14.19485823	      0.30151181	      0.96256505	     30.57373308	     30.57373308	    -26.01925622	    -26.01925622	      6.07716705	      6.07716705	    -13.70103712
     26.48000000	    -13.83831085	      0.30438252	      0.96469145	     29.59808360	     29.59808360	    -25.28938002	    -25.28938002	      5.94963821	      5.94963821	    -13.25214229
     26.49000000	    -13.79820295	      0.30699681	      0.96606307	     29.04070922	     29.04070922	    -24.67925582	    -24.67925582	      5.96694374	      5.96694374	    -12.41413955
     26.50000000	    -13.12043709	      0.30997377	      0.96874661	     27.66348524	     27.66348524	    -23.83827831	    -23.83827831	      5.71486391	      5.71486391	    -12.39686603
     26.51000000	    -12.73900186	      0.31272895	      0.97068801	     26.68729201	     26.68729201	    -23.14359159	    -23.14359159	      5.58356969	      5.58356969	    -12.00655090
     26.52000000	    -12.37078314	      0.31541074	      0.97252461	     25.74015347	     25.74015347	    -22.46351162	    -22.46351162	      5.47685282	      5.47685282	    -11.61564750
     26.53000000	    -11.99668131	      0.31804303	      0.97430633	     24.79562479	     24.79562479	    -21.79067801	    -21.79067801	      5.37076895	      5.37076895	    -11.24804427
     26.54000000	    -11.61640438	      0.32062008	      0.97600118	     23.85875377	     23.85875377	    -21.13880007	    -21.13880007	      5.26744158	      5.26744158	    -10.89794294
     26.55000000	    -11.25969412	      0.32310781	      0.97757564	     22.97077644	     22.97077644	    -20.51964186	    -20.51964186	      5.17787039	      5.17787039	    -10.53788671
